# xmcd CD database file
#
# Track frame offsets:
#	150
#	13630
#	24717
#	40370
#	63935
#	78765
#	94462
#	107617
#	119230
#	131105
#	145185
#	157915
#	172625
#	189467
#	203252
#	215522
#	230682
#	243855
#
# Disc length: 3479 seconds
#
# Revision: 2
# Processed by: cddbd v1.4PL0 Copyright (c) Steve Scherf et al.
# Submitted via: CDex 1.50Beta7
#
DISCID=ee0d9512
DTITLE=Kikki Danielsson - Country Classics Disc  3 - Klassiker
DYEAR=1995
DGENRE=Country
TTITLE0=Please Help Me I'm Falling
TTITLE1=Diggy Diggy Loo
TTITLE2=Storm Never Last
TTITLE3=Amazing Grace
TTITLE4=Fais Deaux Deaux
TTITLE5=Forget Me Not
TTITLE6=Single Girl
TTITLE7=Walk On By
TTITLE8=Stand By Your Man
TTITLE9=Good Year For The Roses
TTITLE10=Listen To A Country Song
TTITLE11=You Don't Have To Say You Love Me
TTITLE12=My Broken Souvenirs
TTITLE13=Please Change Your Mind
TTITLE14=Nine To Five
TTITLE15=Don't Forget To Remember
TTITLE16=My Love
TTITLE17=U.S Of America
EXTD=YEAR: 1995
EXTT0=
EXTT1=
EXTT2=
EXTT3=
EXTT4=
EXTT5=
EXTT6=
EXTT7=
EXTT8=
EXTT9=
EXTT10=
EXTT11=
EXTT12=
EXTT13=
EXTT14=
EXTT15=
EXTT16=
EXTT17=
PLAYORDER=
